<svg width="1280" height="2050" viewBox="0 0 1280 2050" fill="none" xmlns="http://www.w3.org/2000/svg"><g opacity=".04" filter="url(#a)"><circle cx="1140.5" cy="582.5" r="500.5" fill="#AD00FF"/></g><g opacity=".03" filter="url(#b)"><circle cx="640" cy="811" r="426" fill="#AD00FF"/></g><g opacity=".1" filter="url(#c)"><circle cx="1067" cy="1511" r="239" fill="#AD00FF"/></g><g opacity=".1" filter="url(#d)"><circle cx="373" cy="321" r="292" fill="url(#e)"/></g><g opacity=".02" filter="url(#f)"><path d="M828 902a319.987 319.987 0 0 1-93.726 226.27A319.968 319.968 0 0 1 508 1222a319.97 319.97 0 0 1-226.274-93.73A319.987 319.987 0 0 1 188 902h640Z" fill="#AD00FF"/></g><g opacity=".01" filter="url(#g)"><circle cx="783" cy="439" r="118" fill="#AD00FF"/></g><defs><filter id="a" x="390" y="-168" width="1501" height="1501" filterUnits="userSpaceOnUse" color-interpolation-filters="sRGB"><feFlood flood-opacity="0" result="BackgroundImageFix"/><feBlend in="SourceGraphic" in2="BackgroundImageFix" result="shape"/><feGaussianBlur stdDeviation="125" result="effect1_foregroundBlur_230_11140"/></filter><filter id="b" x="14" y="185" width="1252" height="1252" filterUnits="userSpaceOnUse" color-interpolation-filters="sRGB"><feFlood flood-opacity="0" result="BackgroundImageFix"/><feBlend in="SourceGraphic" in2="BackgroundImageFix" result="shape"/><feGaussianBlur stdDeviation="100" result="effect1_foregroundBlur_230_11140"/></filter><filter id="c" x="528" y="972" width="1078" height="1078" filterUnits="userSpaceOnUse" color-interpolation-filters="sRGB"><feFlood flood-opacity="0" result="BackgroundImageFix"/><feBlend in="SourceGraphic" in2="BackgroundImageFix" result="shape"/><feGaussianBlur stdDeviation="150" result="effect1_foregroundBlur_230_11140"/></filter><filter id="d" x="-219" y="-271" width="1184" height="1184" filterUnits="userSpaceOnUse" color-interpolation-filters="sRGB"><feFlood flood-opacity="0" result="BackgroundImageFix"/><feBlend in="SourceGraphic" in2="BackgroundImageFix" result="shape"/><feGaussianBlur stdDeviation="150" result="effect1_foregroundBlur_230_11140"/></filter><filter id="f" x="-212" y="502" width="1440" height="1120" filterUnits="userSpaceOnUse" color-interpolation-filters="sRGB"><feFlood flood-opacity="0" result="BackgroundImageFix"/><feBlend in="SourceGraphic" in2="BackgroundImageFix" result="shape"/><feGaussianBlur stdDeviation="200" result="effect1_foregroundBlur_230_11140"/></filter><filter id="g" x="465" y="121" width="636" height="636" filterUnits="userSpaceOnUse" color-interpolation-filters="sRGB"><feFlood flood-opacity="0" result="BackgroundImageFix"/><feBlend in="SourceGraphic" in2="BackgroundImageFix" result="shape"/><feGaussianBlur stdDeviation="100" result="effect1_foregroundBlur_230_11140"/></filter><linearGradient id="e" x1="420.146" y1="-68.333" x2="516.243" y2="772.525" gradientUnits="userSpaceOnUse"><stop stop-color="#AD00FF" stop-opacity="0"/><stop offset="1" stop-color="#AD00FF"/></linearGradient></defs></svg>