<svg width="2110" height="2321" viewBox="0 0 2110 2321" fill="none" xmlns="http://www.w3.org/2000/svg"><g opacity=".04" filter="url(#a)"><circle cx="1359.5" cy="853.5" r="500.5" fill="#AD00FF"/></g><g opacity=".03" filter="url(#b)"><circle cx="859" cy="1082" r="426" fill="#AD00FF"/></g><g opacity=".1" filter="url(#c)"><circle cx="1286" cy="1782" r="239" fill="#AD00FF"/></g><g opacity=".1" filter="url(#d)"><circle cx="592" cy="592" r="292" fill="url(#e)"/></g><g opacity=".02" filter="url(#f)"><path d="M1047 1173c0 84.87-33.71 166.26-93.726 226.27A319.968 319.968 0 0 1 727 1493a319.97 319.97 0 0 1-226.274-93.73A319.985 319.985 0 0 1 407 1173h640Z" fill="#AD00FF"/></g><g opacity=".01" filter="url(#g)"><circle cx="1002" cy="710" r="118" fill="#AD00FF"/></g><defs><filter id="a" x="609" y="103" width="1501" height="1501" filterUnits="userSpaceOnUse" color-interpolation-filters="sRGB"><feFlood flood-opacity="0" result="BackgroundImageFix"/><feBlend in="SourceGraphic" in2="BackgroundImageFix" result="shape"/><feGaussianBlur stdDeviation="125" result="effect1_foregroundBlur_230_4774"/></filter><filter id="b" x="233" y="456" width="1252" height="1252" filterUnits="userSpaceOnUse" color-interpolation-filters="sRGB"><feFlood flood-opacity="0" result="BackgroundImageFix"/><feBlend in="SourceGraphic" in2="BackgroundImageFix" result="shape"/><feGaussianBlur stdDeviation="100" result="effect1_foregroundBlur_230_4774"/></filter><filter id="c" x="747" y="1243" width="1078" height="1078" filterUnits="userSpaceOnUse" color-interpolation-filters="sRGB"><feFlood flood-opacity="0" result="BackgroundImageFix"/><feBlend in="SourceGraphic" in2="BackgroundImageFix" result="shape"/><feGaussianBlur stdDeviation="150" result="effect1_foregroundBlur_230_4774"/></filter><filter id="d" x="0" y="0" width="1184" height="1184" filterUnits="userSpaceOnUse" color-interpolation-filters="sRGB"><feFlood flood-opacity="0" result="BackgroundImageFix"/><feBlend in="SourceGraphic" in2="BackgroundImageFix" result="shape"/><feGaussianBlur stdDeviation="150" result="effect1_foregroundBlur_230_4774"/></filter><filter id="f" x="7" y="773" width="1440" height="1120" filterUnits="userSpaceOnUse" color-interpolation-filters="sRGB"><feFlood flood-opacity="0" result="BackgroundImageFix"/><feBlend in="SourceGraphic" in2="BackgroundImageFix" result="shape"/><feGaussianBlur stdDeviation="200" result="effect1_foregroundBlur_230_4774"/></filter><filter id="g" x="684" y="392" width="636" height="636" filterUnits="userSpaceOnUse" color-interpolation-filters="sRGB"><feFlood flood-opacity="0" result="BackgroundImageFix"/><feBlend in="SourceGraphic" in2="BackgroundImageFix" result="shape"/><feGaussianBlur stdDeviation="100" result="effect1_foregroundBlur_230_4774"/></filter><linearGradient id="e" x1="639.146" y1="202.667" x2="735.243" y2="1043.52" gradientUnits="userSpaceOnUse"><stop stop-color="#AD00FF" stop-opacity="0"/><stop offset="1" stop-color="#AD00FF"/></linearGradient></defs></svg>