<svg width="320" height="226" viewBox="0 0 320 226" fill="none" xmlns="http://www.w3.org/2000/svg"><g opacity=".5" filter="url(#a)"><path d="M146.619 1.682c7.25-2.243 16.182-2.243 23.431 0l138.235 49.386C315.534 53.31 320 57.455 320 61.94l-.986 263.669c0 4.485-4.466 8.631-11.716 10.874L170.05 376.318c-7.249 2.243-16.181 2.243-23.431 0L12.232 336.483C4.982 334.241.517 330.095.517 325.61L0 61.94c0-4.485 4.466-8.63 11.715-10.873L146.62 1.682Z" fill="url(#b)"/></g><defs><linearGradient id="b" x1="150.576" y1="3.068" x2="150.576" y2="37.947" gradientUnits="userSpaceOnUse"><stop stop-color="#0038FF" stop-opacity=".37"/><stop offset=".594" stop-color="#20056A"/></linearGradient><filter id="a" x="-50" y="0" width="370" height="428" filterUnits="userSpaceOnUse" color-interpolation-filters="sRGB"><feFlood flood-opacity="0" result="BackgroundImageFix"/><feBlend in="SourceGraphic" in2="BackgroundImageFix" result="shape"/><feColorMatrix in="SourceAlpha" values="0 0 0 0 0 0 0 0 0 0 0 0 0 0 0 0 0 0 127 0" result="hardAlpha"/><feOffset dx="-46" dy="4"/><feGaussianBlur stdDeviation="15"/><feComposite in2="hardAlpha" operator="arithmetic" k2="-1" k3="1"/><feColorMatrix values="0 0 0 0 0.520833 0 0 0 0 0.97125 0 0 0 0 1 0 0 0 0.3 0"/><feBlend in2="shape" result="effect1_innerShadow_1188_48180"/><feColorMatrix in="SourceAlpha" values="0 0 0 0 0 0 0 0 0 0 0 0 0 0 0 0 0 0 127 0" result="hardAlpha"/><feOffset dx="-140" dy="72"/><feGaussianBlur stdDeviation="25"/><feComposite in2="hardAlpha" operator="arithmetic" k2="-1" k3="1"/><feColorMatrix values="0 0 0 0 1 0 0 0 0 0 0 0 0 0 0.6 0 0 0 0.16 0"/><feBlend in2="effect1_innerShadow_1188_48180" result="effect2_innerShadow_1188_48180"/></filter></defs></svg>