<svg width="1024" height="315" viewBox="0 0 1024 315" fill="none" xmlns="http://www.w3.org/2000/svg"><g opacity=".5" filter="url(#a-footer-sm)"><path d="M459.478 6.718c28.997-8.958 64.724-8.958 93.722.003l552.94 197.287c29 8.958 46.86 25.517 46.86 43.436l-3.95 318.266c0 17.919-17.86 34.478-46.86 43.439L553.2 768.282c-28.998 8.958-64.725 8.958-93.722-.003l-537.55-159.133c-28.998-8.958-46.861-25.517-46.861-43.436L-127 247.444c0-17.919 17.863-34.478 46.861-43.439L459.478 6.718Z" fill="url(#b-footer-sm)"/></g><defs><linearGradient id="b-footer-sm" x1="475.305" y1="12.255" x2="475.305" y2="151.594" gradientUnits="userSpaceOnUse"><stop stop-color="#0038FF" stop-opacity=".37"/><stop offset=".594" stop-color="#20056A"/></linearGradient><filter id="a-footer-sm" x="-177" y="0" width="1330" height="825" filterUnits="userSpaceOnUse" color-interpolation-filters="sRGB"><feFlood flood-opacity="0" result="BackgroundImageFix"/><feBlend in="SourceGraphic" in2="BackgroundImageFix" result="shape"/><feColorMatrix in="SourceAlpha" values="0 0 0 0 0 0 0 0 0 0 0 0 0 0 0 0 0 0 127 0" result="hardAlpha"/><feOffset dx="-46" dy="4"/><feGaussianBlur stdDeviation="15"/><feComposite in2="hardAlpha" operator="arithmetic" k2="-1" k3="1"/><feColorMatrix values="0 0 0 0 0.520833 0 0 0 0 0.97125 0 0 0 0 1 0 0 0 0.3 0"/><feBlend in2="shape" result="effect1_innerShadow_1106_143834"/><feColorMatrix in="SourceAlpha" values="0 0 0 0 0 0 0 0 0 0 0 0 0 0 0 0 0 0 127 0" result="hardAlpha"/><feOffset dx="-140" dy="72"/><feGaussianBlur stdDeviation="25"/><feComposite in2="hardAlpha" operator="arithmetic" k2="-1" k3="1"/><feColorMatrix values="0 0 0 0 1 0 0 0 0 0 0 0 0 0 0.6 0 0 0 0.16 0"/><feBlend in2="effect1_innerShadow_1106_143834" result="effect2_innerShadow_1106_143834"/></filter></defs></svg>