<svg width="1280" height="315" viewBox="0 0 1280 315" fill="none" xmlns="http://www.w3.org/2000/svg"><g opacity=".5" filter="url(#a-footer-md)"><path d="M579.787 6.718c32.623-8.958 72.815-8.958 105.438.003l622.055 197.287c32.62 8.958 52.72 25.517 52.72 43.436l-4.44 318.266c0 17.919-20.1 34.478-52.72 43.439L685.225 768.282c-32.623 8.958-72.815 8.958-105.438-.003L-24.956 609.146c-32.623-8.958-52.72-25.517-52.72-43.436L-80 247.444c0-17.919 20.096-34.478 52.719-43.439L579.787 6.718Z" fill="url(#b-footer-md)"/></g><defs><linearGradient id="b-footer-md" x1="597.593" y1="12.255" x2="597.593" y2="151.594" gradientUnits="userSpaceOnUse"><stop stop-color="#0038FF" stop-opacity=".37"/><stop offset=".594" stop-color="#20056A"/></linearGradient><filter id="a-footer-md" x="-130" y="0" width="1490" height="825" filterUnits="userSpaceOnUse" color-interpolation-filters="sRGB"><feFlood flood-opacity="0" result="BackgroundImageFix"/><feBlend in="SourceGraphic" in2="BackgroundImageFix" result="shape"/><feColorMatrix in="SourceAlpha" values="0 0 0 0 0 0 0 0 0 0 0 0 0 0 0 0 0 0 127 0" result="hardAlpha"/><feOffset dx="-46" dy="4"/><feGaussianBlur stdDeviation="15"/><feComposite in2="hardAlpha" operator="arithmetic" k2="-1" k3="1"/><feColorMatrix values="0 0 0 0 0.520833 0 0 0 0 0.97125 0 0 0 0 1 0 0 0 0.3 0"/><feBlend in2="shape" result="effect1_innerShadow_1124_77786"/><feColorMatrix in="SourceAlpha" values="0 0 0 0 0 0 0 0 0 0 0 0 0 0 0 0 0 0 127 0" result="hardAlpha"/><feOffset dx="-140" dy="72"/><feGaussianBlur stdDeviation="25"/><feComposite in2="hardAlpha" operator="arithmetic" k2="-1" k3="1"/><feColorMatrix values="0 0 0 0 1 0 0 0 0 0 0 0 0 0 0.6 0 0 0 0.16 0"/><feBlend in2="effect1_innerShadow_1124_77786" result="effect2_innerShadow_1124_77786"/></filter></defs></svg>