<svg width="28" height="29" viewBox="0 0 28 29" fill="none" xmlns="http://www.w3.org/2000/svg">
<g clip-path="url(#clip0_804_83)">
<rect y="0.909668" width="28" height="28" rx="14" fill="white"/>
<path d="M4.39176 25.2912C10.0902 30.6533 19.0565 30.3806 24.4186 24.6822C29.7807 18.9838 29.5081 10.0174 23.8096 4.65535C18.1112 -0.70675 9.14486 -0.434094 3.78276 5.26434C-1.57933 10.9628 -1.30668 19.9291 4.39176 25.2912Z" fill="url(#paint0_linear_804_83)"/>
<path fill-rule="evenodd" clip-rule="evenodd" d="M7.37531 6.46521C7.37531 6.46521 11.2707 8.72703 12.5422 11.3022C13.0044 11.1752 13.4901 11.1061 13.9853 11.1061C14.4899 11.1061 14.9844 11.1778 15.4544 11.3094C16.7222 8.73124 20.6248 6.46521 20.6248 6.46521C20.7628 7.9349 20.6338 11.4626 19.0939 14.4133C19.0048 14.2604 18.9188 14.1176 18.833 13.9806C19.3451 12.9228 19.4945 12.241 19.507 10.9404C19.2117 12.121 19.0394 12.7855 18.4995 13.4796C18.1674 13.0111 17.7813 12.5537 17.1848 11.9102L17.1853 11.8932C17.3836 10.6897 17.6879 9.96489 18.323 8.64829C17.0816 10.1042 16.4885 11.2854 16.5063 12.338L16.4962 12.3282C16.5041 12.9245 16.7078 13.4795 17.1005 14.0196L17.1754 13.4535L17.5142 13.6606C17.4721 13.5329 17.4299 13.4265 17.3904 13.3265C17.3476 13.2184 17.3078 13.1177 17.2742 13.0057C17.2785 13.0094 17.283 13.0131 17.2875 13.0168C17.2863 13.0131 17.2852 13.0094 17.2841 13.0057C17.7709 13.4101 18.2086 13.8719 18.9442 14.6903L18.9344 14.7076L18.9248 14.6982C18.9599 14.8881 18.9782 15.081 18.9782 15.2762C18.9782 15.5909 18.9307 15.9851 18.8417 16.43C18.9812 16.5107 19.1187 16.6213 19.2081 16.7951C19.0195 16.7982 18.8895 16.8139 18.7457 16.8635C18.7406 16.8846 18.7354 16.9057 18.7302 16.927C19.2408 17.4201 19.4724 17.7699 19.8056 18.4244C19.2816 17.9885 18.9502 17.7189 18.5764 17.4959C18.5595 17.5535 18.5423 17.6114 18.5245 17.6697C18.8117 18.1776 18.8672 18.552 18.7357 19.1976C18.4888 18.9839 18.3111 18.8338 18.1531 18.7504C18.0371 19.0545 17.9106 19.3605 17.7747 19.6631C17.6834 19.7513 17.6101 19.847 17.5377 19.9416C17.3439 20.1949 17.156 20.4404 16.6449 20.5128C16.6724 21.2126 16.5176 21.5193 16.3531 21.8454C16.2706 22.0088 16.1857 22.1772 16.12 22.4023C15.9904 22.5537 15.858 22.6947 15.7234 22.8235C14.8906 23.2404 14.8472 23.2198 14.0694 22.851L13.9721 22.8049C13.1001 23.2174 13.0373 23.2395 12.2977 22.871C12.1209 22.7067 11.948 22.521 11.78 22.3182C11.7187 22.134 11.645 21.9879 11.5731 21.8454C11.4085 21.5193 11.2538 21.2126 11.2812 20.5128C10.7702 20.4404 10.5823 20.1949 10.3884 19.9416C10.3399 19.8782 10.2909 19.8143 10.2365 19.7525C10.0868 19.4246 9.9482 19.0922 9.82195 18.7619C9.66288 18.8448 9.48414 18.9957 9.23492 19.2115C9.10303 18.5637 9.15935 18.189 9.44898 17.6785C9.43144 17.6213 9.41435 17.5643 9.39775 17.5076C9.02248 17.731 8.69069 18.0009 8.16506 18.4382C8.49881 17.7826 8.73067 17.4326 9.24326 16.9382C9.23833 16.9182 9.23347 16.8985 9.22868 16.8787C9.08345 16.828 8.95272 16.8121 8.76254 16.8088C8.85249 16.6342 8.9911 16.5232 9.13148 16.4424C9.04087 15.9924 8.9925 15.5938 8.9925 15.2762C8.9925 15.0825 9.01049 14.8908 9.04508 14.7023C9.78714 13.8765 10.2268 13.4121 10.7159 13.0057C10.6823 13.1177 10.6425 13.2184 10.5997 13.3265C10.5601 13.4265 10.518 13.5329 10.4759 13.6606L10.8147 13.4535L10.8896 14.0196C11.9738 12.5284 11.6173 10.9238 9.67708 8.6483C10.3121 9.96489 10.6165 10.6897 10.8147 11.8932L10.8154 11.9102C10.2188 12.5537 9.83267 13.0111 9.50061 13.4796C8.9607 12.7855 8.78836 12.121 8.49312 10.9404C8.50563 12.241 8.65507 12.9228 9.1671 13.9806C9.08127 14.1175 8.99541 14.2604 8.9063 14.4132C7.36637 11.4625 7.23728 7.93488 7.37531 6.46521ZM12.6159 17.4578L12.1737 16.6293L10.9326 16.4084C10.9867 17.2856 11.5745 17.6235 12.6159 17.4578ZM15.9682 16.6293L15.526 17.4578C16.5674 17.6235 17.1551 17.2856 17.2093 16.4084L15.9682 16.6293ZM13.191 20.9473C12.9981 21.0795 12.879 21.2608 12.879 21.461C12.879 21.8652 13.3644 22.1928 13.9631 22.1928C14.5619 22.1928 15.0473 21.8652 15.0473 21.461C15.0473 21.2504 14.9155 21.0606 14.7046 20.9271C14.4908 21.0105 14.2178 21.0606 13.9204 21.0606C13.6478 21.0606 13.3957 21.0185 13.191 20.9473Z" fill="white"/>
</g>
<defs>
<linearGradient id="paint0_linear_804_83" x1="3.78276" y1="5.26434" x2="24.4186" y2="24.6822" gradientUnits="userSpaceOnUse">
<stop stop-color="#032963"/>
<stop offset="0.604502" stop-color="#040D21"/>
</linearGradient>
<clipPath id="clip0_804_83">
<rect y="0.909668" width="28" height="28" rx="14" fill="white"/>
</clipPath>
</defs>
</svg>
