<svg width="28" height="28" viewBox="0 0 28 28" fill="none" xmlns="http://www.w3.org/2000/svg">
<rect width="28" height="28" rx="14" fill="#102447"/>
<path d="M23.2463 18.3817H22.8116L19.4976 16.7392L19.3043 16.43L19.1111 16.1208V11.2319L19.3043 11.116L23.8647 18.0725L23.2463 18.3817Z" fill="#FFA80A"/>
<path d="M13.9324 19.0871H13.4976L8.56042 16.6426V16.4301L8.75366 16.1209L13.7488 13.6475L13.9324 13.7731L14.1256 13.6475L19.1111 16.1209L19.3044 16.4301V16.662L14.3672 19.0871H13.9324Z" fill="#95001A"/>
<path d="M19.3044 16.4299L19.4976 16.7391V20.0628L19.3044 20.343L17.8744 21.0483H17.4396L13.9324 19.3092V19.0869L19.3044 16.4299Z" fill="#520033"/>
<path d="M19.3044 11.1159L15.2947 5H13.9324V8.44928L14.1256 8.75845L19.1111 11.2319L19.3044 11.1159Z" fill="#FFE50A"/>
<path d="M8.56042 11.1159L12.5701 5H13.9324V8.44928L13.7778 8.73913L8.75366 11.2319L8.56042 11.1159Z" fill="#FFA80A"/>
<path d="M23.2464 18.3816L19.3043 20.343V16.4299L23.2464 18.3816Z" fill="#6D0044"/>
<path d="M4.61836 18.3817H5.05314L8.36715 16.7392L8.56039 16.43L8.75362 16.1208V11.2319L8.56039 11.116L4 18.0725L4.61836 18.3817Z" fill="#FF3417"/>
<path d="M8.56042 16.4299L8.36719 16.7391V20.0628L8.56042 20.343L9.99038 21.0483H10.4252L13.9324 19.3092V19.0869L8.56042 16.4299Z" fill="#40004D"/>
<path d="M4.61841 18.3816L8.56044 20.343V16.4299L4.61841 18.3816Z" fill="#6D0044"/>
<path d="M13.9324 23L17.8744 21.0483L13.9324 19.0869L9.99036 21.0483L13.9324 23Z" fill="#6D0074"/>
<path d="M8.56042 16.4299L13.9324 13.7729L14.1256 13.6473V8.7584L13.9324 8.44922L8.56042 11.1159V16.4299Z" fill="#D7001F"/>
<path d="M19.3044 16.4299L13.9324 13.7729V8.44922L19.3044 11.1159V16.4299Z" fill="#EF8109"/>
</svg>
