<svg width="28" height="28" viewBox="0 0 28 28" fill="none" xmlns="http://www.w3.org/2000/svg">
<g clip-path="url(#clip0_1030_121)">
<mask id="mask0_1030_121" style="mask-type:luminance" maskUnits="userSpaceOnUse" x="0" y="0" width="28" height="28">
<path d="M28 0H0V28H28V0Z" fill="white"/>
</mask>
<g mask="url(#mask0_1030_121)">
<path d="M14 27.825C21.6353 27.825 27.825 21.6353 27.825 14C27.825 6.36471 21.6353 0.175049 14 0.175049C6.36471 0.175049 0.175049 6.36471 0.175049 14C0.175049 21.6353 6.36471 27.825 14 27.825Z" fill="url(#paint0_linear_1030_121)"/>
<path fill-rule="evenodd" clip-rule="evenodd" d="M13.9993 -0.0898438L18.3532 0.600585L22.2809 2.60087L25.3977 5.71758L27.3996 9.64536L28.0901 13.9992L27.3996 18.3531L25.3977 22.2808L22.281 25.3976L18.3532 27.3995L13.9993 28.09L9.64548 27.3995L5.71769 25.3976L2.60099 22.2808L0.600705 18.3531L-0.0897217 13.9992L0.600706 9.64541L2.60099 5.71761L5.71773 2.60087L9.64553 0.600585L13.9993 -0.0898438ZM13.9993 0.441717L9.80978 1.1061L6.03012 3.03094L3.03106 6.03L1.10622 9.80966L0.441839 13.9992L1.10622 18.1888L3.03106 21.9684L6.03015 24.9676L9.80982 26.894L13.9993 27.5584L18.1889 26.894L21.9685 24.9676L24.9677 21.9684L26.8941 18.1888L27.5585 13.9992L26.8941 9.8097L24.9677 6.03004L21.9685 3.03094L18.1889 1.1061L13.9993 0.441717Z" fill="white"/>
<path fill-rule="evenodd" clip-rule="evenodd" d="M13.8929 13.9218L22.0184 2.73853L22.2307 2.89282L14.1053 14.0761L13.8929 13.9218Z" fill="white"/>
<path fill-rule="evenodd" clip-rule="evenodd" d="M13.893 14.0761L5.76758 2.89282L5.97994 2.73853L14.1053 13.9218L13.893 14.0761Z" fill="white"/>
<path fill-rule="evenodd" clip-rule="evenodd" d="M14.0396 14.1239L0.893746 18.3957L0.812622 18.146L13.9585 13.8743L14.0396 14.1239Z" fill="white"/>
<path fill-rule="evenodd" clip-rule="evenodd" d="M14.1303 13.999V27.8223H13.8678V13.999H14.1303Z" fill="white"/>
<path fill-rule="evenodd" clip-rule="evenodd" d="M14.0396 13.8743L27.1872 18.146L27.1061 18.3957L13.9585 14.1239L14.0396 13.8743Z" fill="white"/>
<path fill-rule="evenodd" clip-rule="evenodd" d="M11.6364 10.749H16.3617L17.8208 15.2421L13.999 18.0185L10.1774 15.2421L11.6364 10.749ZM11.8271 11.0115L10.4859 15.1418L13.999 17.6941L17.5122 15.1418L16.171 11.0115H11.8271Z" fill="white"/>
<path fill-rule="evenodd" clip-rule="evenodd" d="M18.3777 0.92936L13.999 7.07864L9.62048 0.929358L9.83431 0.777101L13.999 6.62608L18.1639 0.7771L18.3777 0.92936Z" fill="white"/>
<path fill-rule="evenodd" clip-rule="evenodd" d="M14.1304 -0.0246582V1.69948L16.5758 3.8526H11.4224L13.6514 1.89005H9.74487L14.1304 -0.0246582ZM13.9991 1.93367L12.1178 3.5901H15.8804L13.9991 1.93367ZM13.8679 1.62755H11.0022L13.8679 0.376378V1.62755Z" fill="white"/>
<path fill-rule="evenodd" clip-rule="evenodd" d="M16.9975 1.6274L13.9465 0.29601L14.0515 0.0554199L18.2553 1.8899H13.999V1.6274H16.9975Z" fill="white"/>
<path fill-rule="evenodd" clip-rule="evenodd" d="M13.9991 6.58472L16.3808 10.8158L16.152 10.9445L13.9991 7.11985L11.8462 10.9445L11.6174 10.8158L13.9991 6.58472Z" fill="white"/>
<path fill-rule="evenodd" clip-rule="evenodd" d="M10.8408 1.51416L7.63158 4.40734L12.076 3.52691L9.4142 7.1457L13.9869 6.72166L14.0112 6.98304L8.85638 7.46105L11.4641 3.91572L6.74872 4.84983L9.9061 2.00336L5.90366 2.94355L5.84363 2.68801L10.8408 1.51416Z" fill="white"/>
<path fill-rule="evenodd" clip-rule="evenodd" d="M17.1593 1.51416L22.1545 2.688L22.0944 2.94354L18.0935 2.00335L21.2491 4.84978L16.5341 3.91574L19.1436 7.46105L13.9869 6.98303L14.0112 6.72165L18.5855 7.14569L15.922 3.52688L20.3668 4.40738L17.1593 1.51416Z" fill="white"/>
<path fill-rule="evenodd" clip-rule="evenodd" d="M2.92123 5.79541L7.41761 11.8608L0.215171 14.1242L0.136475 13.8737L6.98714 11.7209L2.71035 5.95174L2.92123 5.79541Z" fill="white"/>
<path fill-rule="evenodd" clip-rule="evenodd" d="M5.14459 8.41357L3.55238 13.315L2.37347 10.588L1.16684 14.3036L0.701294 9.54064L2.34019 10.0737L5.14459 8.41357ZM2.19065 10.3011L1.00157 9.91434L1.30572 13.026L2.19065 10.3011ZM2.52236 10.2709L4.68019 8.99352L3.51748 12.5728L2.52236 10.2709Z" fill="white"/>
<path fill-rule="evenodd" clip-rule="evenodd" d="M3.79685 6.20923L2.48088 10.2573L2.23124 10.1761L3.15817 7.32479L0.949669 9.81448L0.753296 9.64028L3.79685 6.20923Z" fill="white"/>
<path fill-rule="evenodd" clip-rule="evenodd" d="M7.4568 11.8736L11.7576 11.0088L11.7058 10.7515L6.94788 11.7082L10.235 15.2807L10.4282 15.103L7.4568 11.8736Z" fill="white"/>
<path fill-rule="evenodd" clip-rule="evenodd" d="M6.06419 16.2433L7.07434 11.7622L7.33042 11.8199L6.19172 16.8713L3.62537 13.2949L3.05703 18.0676L1.32461 14.1848L0.982292 18.2817L0.720703 18.2598L1.14808 13.1449L2.90892 17.0914L3.44462 12.5928L6.06419 16.2433Z" fill="white"/>
<path fill-rule="evenodd" clip-rule="evenodd" d="M3.85484 6.39789L5.98599 2.88367L5.76154 2.74756L3.10034 7.13582L6.84361 4.97799L4.63312 8.93425L8.89744 7.51984L7.08016 11.7389L7.32124 11.8427L9.36988 7.08658L5.19189 8.47235L7.53689 4.27536L3.85484 6.39789Z" fill="white"/>
<path fill-rule="evenodd" clip-rule="evenodd" d="M9.93004 19.5974L9.85685 27.1479L9.59436 27.1453L9.66398 19.9636L2.85575 22.2489L2.77222 22L9.93004 19.5974Z" fill="white"/>
<path fill-rule="evenodd" clip-rule="evenodd" d="M5.95026 20.6943L10.119 23.7217L7.16039 24.0005L10.3246 26.2974L5.6499 25.2673L6.6609 23.8733L5.95026 20.6943ZM6.83106 24.0858L6.09757 25.0971L9.15126 25.77L6.83106 24.0858ZM6.90475 23.7609L6.35795 21.3148L9.40216 23.5256L6.90475 23.7609Z" fill="white"/>
<path fill-rule="evenodd" clip-rule="evenodd" d="M3.4353 21.2947L6.87904 23.7963L6.72476 24.0087L4.29998 22.2472L5.98687 25.1159L5.7606 25.2489L3.4353 21.2947Z" fill="white"/>
<path fill-rule="evenodd" clip-rule="evenodd" d="M9.95448 19.5641L10.4621 15.2071L10.2014 15.1768L9.63977 19.997L14.0538 17.9756L13.9445 17.7369L9.95448 19.5641Z" fill="white"/>
<path fill-rule="evenodd" clip-rule="evenodd" d="M13.6807 22.2394L9.73011 19.8934L9.86414 19.6677L14.3176 22.3124L10.1224 23.6464L14.486 25.6633L10.2599 26.1106L14.0499 27.7013L13.9483 27.9434L9.21594 25.9571L13.5122 25.5024L9.3987 23.6011L13.6807 22.2394Z" fill="white"/>
<path fill-rule="evenodd" clip-rule="evenodd" d="M5.99497 16.2654L9.88371 19.6835L9.7104 19.8807L6.2609 16.8486L6.28728 21.3415L3.20822 18.0174L4.10368 22.2436L0.752075 18.3562L0.950887 18.1848L3.63499 21.298L2.75419 17.141L6.02082 20.6675L5.99497 16.2654Z" fill="white"/>
<path fill-rule="evenodd" clip-rule="evenodd" d="M18.0664 19.5991L25.2225 22.0018L25.1389 22.2506L18.3325 19.9654L18.4021 27.1453L18.1396 27.1479L18.0664 19.5991Z" fill="white"/>
<path fill-rule="evenodd" clip-rule="evenodd" d="M22.0465 20.6941L21.3969 23.5938L24.5589 21.2968L22.1344 25.4233L21.1215 24.0293L17.8778 23.7235L22.0465 20.6941ZM21.3762 23.9333L22.1111 24.9447L23.6952 22.2487L21.3762 23.9333ZM21.09 23.7627L18.5942 23.5274L21.6383 21.3152L21.09 23.7627Z" fill="white"/>
<path fill-rule="evenodd" clip-rule="evenodd" d="M18.8448 25.772L21.2699 24.0105L21.1157 23.7981L17.6724 26.2992L22.151 25.3122L22.0945 25.0559L18.8448 25.772Z" fill="white"/>
<path fill-rule="evenodd" clip-rule="evenodd" d="M18.0421 19.5657L17.5361 15.207L17.7969 15.1768L18.3566 19.9988L13.9443 17.9755L14.0537 17.7369L18.0421 19.5657Z" fill="white"/>
<path fill-rule="evenodd" clip-rule="evenodd" d="M22.0033 16.2654L21.9758 20.6674L25.2421 17.1411L24.3613 21.2998L27.0455 18.1865L27.2443 18.3579L23.8927 22.2453L24.7882 18.0174L21.709 21.3416L21.7371 16.8486L18.2861 19.8807L18.1128 19.6835L22.0033 16.2654Z" fill="white"/>
<path fill-rule="evenodd" clip-rule="evenodd" d="M18.1324 19.6694L18.2664 19.8952L14.3174 22.2395L18.5975 23.6029L14.4858 25.5041L18.7823 25.9588L14.0499 27.9451L13.9483 27.703L17.7383 26.1123L13.5123 25.6651L17.8744 23.6481L13.6807 22.3122L18.1324 19.6694Z" fill="white"/>
<path fill-rule="evenodd" clip-rule="evenodd" d="M25.0771 5.79712L25.288 5.95345L21.011 11.7226L27.8617 13.8755L27.7831 14.1259L20.5806 11.8625L25.0771 5.79712Z" fill="white"/>
<path fill-rule="evenodd" clip-rule="evenodd" d="M24.2012 6.21094L27.3778 9.79197L25.7391 10.325L24.4457 13.3148L22.8535 8.41322L25.4098 9.92818L24.2012 6.21094ZM25.4758 10.2725L23.3181 8.99367L24.4807 12.5728L25.4758 10.2725ZM25.7264 10.0531L24.84 7.32657L26.9155 9.66631L25.7264 10.0531Z" fill="white"/>
<path fill-rule="evenodd" clip-rule="evenodd" d="M26.6924 13.0276L27.016 9.71631L27.2773 9.74184L26.8313 14.3052L25.5173 10.2589L25.767 10.1779L26.6924 13.0276Z" fill="white"/>
<path fill-rule="evenodd" clip-rule="evenodd" d="M20.5413 11.8753L16.2405 11.0088L16.2923 10.7515L21.0502 11.71L17.7631 15.2807L17.57 15.103L20.5413 11.8753Z" fill="white"/>
<path fill-rule="evenodd" clip-rule="evenodd" d="M22.2367 2.74951L24.8978 7.13777L21.1547 4.98004L23.3651 8.93432L19.1006 7.5216L20.9163 11.7409L20.6751 11.8446L18.6285 7.08869L22.8064 8.47268L20.4612 4.27721L24.1433 6.39984L22.0122 2.88562L22.2367 2.74951Z" fill="white"/>
<path fill-rule="evenodd" clip-rule="evenodd" d="M20.6677 11.8199L20.9238 11.7622L21.934 16.2433L24.5535 12.593L25.0908 17.0915L26.8503 13.146L27.2757 18.2616L27.0141 18.2834L26.6735 14.1871L24.943 18.0675L24.373 13.2948L21.8065 16.8713L20.6677 11.8199Z" fill="white"/>
</g>
</g>
<defs>
<linearGradient id="paint0_linear_1030_121" x1="14" y1="27.825" x2="14" y2="0.175049" gradientUnits="userSpaceOnUse">
<stop stop-color="#A93E4D"/>
<stop offset="0.9997" stop-color="#F15A24"/>
</linearGradient>
<clipPath id="clip0_1030_121">
<rect width="28" height="28" fill="white"/>
</clipPath>
</defs>
</svg>
