<svg version="1.1" id="home" xmlns="http://www.w3.org/2000/svg" x="0" y="0" viewBox="0 0 175.81 36.11" style="enable-background:new 0 0 175.81 36.11" xml:space="preserve"><style>.st17{fill:#dc001a}.st18{fill:#f6504b}</style><g id="Group_20765_1_" transform="translate(11.553 9.938)"><path id="Path_45208_3_" class="st17" d="m16.12-7.55 1.56 4.82 1.95-2.11v-3.65l-3.65-1.44-3.02 2.41 3.16-.03z"/><path id="Path_45209_3_" class="st17" d="M16.72-.12 14.89-5.8H9.95l1.28 4.01H4.87v27.96L21.3 12.53 16.72-.12zM9.61 8.67V6.06l3.67-1.47.54 1.65-4.21 2.43z"/><path id="Path_45210_3_" class="st18" d="m-6.38-7.55-1.56 4.82-1.95-2.11v-3.65l3.65-1.44 3.02 2.41-3.16-.03z"/><path id="Path_45211_3_" class="st18" d="M-1.48-1.79-.2-5.8h-4.93L-6.96-.12l-4.58 12.66L4.87 26.17V-1.79h-6.35zM.14 8.67l-4.21-2.43.54-1.65L.14 6.06v2.61z"/></g><g id="Group_20766_1_" transform="translate(54.536 19.708)"><path id="Path_45212_1_" class="st18" d="M-11.55-9.68h7.2c1.4-.07 2.78.36 3.91 1.2.97.77 1.53 1.95 1.48 3.19.01.75-.2 1.49-.62 2.12A4.21 4.21 0 0 1-1.27-1.7C-.43-1.39.32-.86.88-.16c.53.68.81 1.51.8 2.37.04 1.33-.54 2.59-1.57 3.43a6.28 6.28 0 0 1-4.15 1.29h-7.5l-.01-16.61zm7.05 2.11h-4.56v4.93h4.56c.8.04 1.59-.19 2.23-.66a2.364 2.364 0 0 0 0-3.6 3.5 3.5 0 0 0-2.23-.67zm.26 12.39c.89.05 1.76-.22 2.47-.75a2.57 2.57 0 0 0 0-3.95 3.78 3.78 0 0 0-2.47-.76h-4.82v5.46h4.82z"/><path id="Path_45213_1_" class="st18" d="M4.87 6.93V-9.68h2.49V6.93H4.87z"/><path id="Path_45214_1_" class="st18" d="M27.57-1.16c.01 1.13-.2 2.26-.63 3.31-.4.98-.98 1.88-1.72 2.65-.74.75-1.63 1.35-2.6 1.76-1.03.43-2.13.65-3.24.64a8.8 8.8 0 0 1-3.4-.66A8.426 8.426 0 0 1 11.38 2a8.629 8.629 0 0 1 1.83-9.44c.79-.78 1.72-1.4 2.74-1.81 1.08-.45 2.23-.67 3.4-.66 1.28-.01 2.55.25 3.73.76 1.13.48 2.15 1.2 2.97 2.12L24.34-5.4a6.4 6.4 0 0 0-2.24-1.65c-.86-.38-1.8-.58-2.74-.58-.83-.01-1.65.16-2.41.47-.73.3-1.39.75-1.95 1.32-.55.57-.99 1.25-1.28 1.99-.31.79-.47 1.63-.46 2.48-.01.85.15 1.69.48 2.48.3.74.74 1.42 1.29 1.99.55.57 1.22 1.02 1.95 1.33.77.33 1.6.49 2.43.49a5.55 5.55 0 0 0 3.76-1.34 5.1 5.1 0 0 0 1.79-3.4h-5.54v-2.19h8.15v.85z"/><path id="Path_45215_1_" class="st18" d="M36.37 6.93V-9.68h5.87c1.19-.01 2.37.2 3.48.63 1.03.39 1.97.98 2.78 1.73.79.74 1.42 1.65 1.84 2.65.45 1.05.67 2.18.66 3.32.01 1.13-.22 2.26-.66 3.3-.43.99-1.05 1.88-1.83 2.62-.8.75-1.75 1.34-2.78 1.73-1.11.43-2.3.64-3.49.63h-5.87zm5.9-14.38h-3.42V4.7h3.42c.83 0 1.65-.15 2.42-.46.73-.29 1.4-.73 1.96-1.28.55-.55.99-1.2 1.29-1.92.32-.75.48-1.57.48-2.38a6.03 6.03 0 0 0-.48-2.41c-.3-.73-.74-1.39-1.29-1.94a5.563 5.563 0 0 0-1.95-1.3c-.77-.31-1.6-.46-2.43-.46z"/><path id="Path_45216_1_" class="st18" d="M54.23 6.93V-9.68h2.49V6.93h-2.49z"/><path id="Path_45217_1_" class="st18" d="M60.38 6.93v-16.6h7.69c1.44-.06 2.85.43 3.93 1.39 1 .92 1.55 2.23 1.51 3.59a4.6 4.6 0 0 1-1.52 3.56A5.616 5.616 0 0 1 68.07.25h-5.2v6.69l-2.49-.01zm7.43-14.42h-4.94v5.62h4.94c.84.04 1.67-.23 2.32-.77.58-.52.9-1.27.87-2.05.03-.78-.29-1.53-.87-2.04-.65-.54-1.48-.81-2.32-.76z"/><path id="Path_45218_1_" class="st18" d="M76.33 6.93v-16.6h7.69c1.44-.06 2.85.43 3.93 1.39 1 .92 1.55 2.23 1.51 3.59a4.6 4.6 0 0 1-1.52 3.56A5.616 5.616 0 0 1 84.02.25h-5.2v6.69l-2.49-.01zm7.44-14.42h-4.94v5.62h4.94c.84.04 1.67-.23 2.32-.77.58-.52.9-1.27.87-2.05.03-.78-.29-1.53-.87-2.04-.66-.54-1.48-.81-2.32-.76z"/><path id="Path_45219_1_" class="st18" d="M92.35 6.93V-9.68h12.25v2.18h-9.76v4.98h6.41v2.13h-6.41v5.12h9.85v2.18l-12.34.02z"/><path id="Path_45220_1_" class="st18" d="M107.91 6.93V-9.68h7.55c1.46-.07 2.89.42 4 1.36a4.851 4.851 0 0 1 .61 6.38c-.64.81-1.51 1.41-2.49 1.72l3.7 7.14h-2.75L115.09.11h-4.68v6.81l-2.5.01zm7.34-14.42h-4.85v5.55h4.84c.85.04 1.68-.23 2.34-.77a2.728 2.728 0 0 0 .19-3.84c-.06-.06-.12-.13-.19-.19-.66-.52-1.49-.79-2.33-.75z"/></g></svg>