<svg width="14" height="15" viewBox="0 0 14 15" fill="none" xmlns="http://www.w3.org/2000/svg">
<path d="M10.666 3.64408V2.10408C10.6659 1.85545 10.5671 1.61704 10.3913 1.44127C10.2154 1.26549 9.97698 1.16675 9.72835 1.16675H1.60368C1.355 1.16675 1.1165 1.26554 0.940652 1.44138C0.764805 1.61723 0.666015 1.85573 0.666015 2.10441V10.2294C0.666104 10.478 0.764932 10.7165 0.940769 10.8922C1.11661 11.068 1.35505 11.1667 1.60368 11.1667H3.16035" stroke="#FEE6E5" stroke-width="1.33333" stroke-linecap="round" stroke-linejoin="round"/>
<path d="M4.26985 3.8335H12.3955C12.6441 3.83367 12.8824 3.93254 13.0581 4.10837C13.2338 4.2842 13.3325 4.52259 13.3325 4.77116V12.8958C13.3325 13.1445 13.2337 13.383 13.0579 13.5589C12.882 13.7347 12.6435 13.8335 12.3949 13.8335H4.26985C4.02123 13.8334 3.78281 13.7346 3.60704 13.5587C3.43126 13.3829 3.33252 13.1445 3.33252 12.8958V4.7715C3.33248 4.64833 3.3567 4.52637 3.4038 4.41256C3.4509 4.29876 3.51996 4.19536 3.60704 4.10825C3.69411 4.02114 3.7975 3.95205 3.91128 3.9049C4.02506 3.85776 4.14702 3.8335 4.27019 3.8335H4.26985Z" stroke="#FEE6E5" stroke-width="1.33333" stroke-linejoin="round"/>
</svg>
