<svg width="14" height="15" viewBox="0 0 14 15" fill="none" xmlns="http://www.w3.org/2000/svg"><path d="M10.666 3.644v-1.54a.938.938 0 0 0-.938-.937H1.604a.938.938 0 0 0-.938.937v8.125a.938.938 0 0 0 .938.938H3.16" stroke="#FEE6E5" stroke-width="1.333" stroke-linecap="round" stroke-linejoin="round"/><path d="M4.27 3.833h8.126a.938.938 0 0 1 .936.938v8.125a.938.938 0 0 1-.937.938H4.27a.937.937 0 0 1-.937-.938V4.77a.938.938 0 0 1 .937-.938Z" stroke="#FEE6E5" stroke-width="1.333" stroke-linejoin="round"/></svg>