<svg xmlns="http://www.w3.org/2000/svg" width="515" height="259" viewBox="0 0 515 259"><defs><clipPath id="a-unicorn404"><path data-name="Rectangle 608" fill="#fff" stroke="#707070" d="M787 387h291v235H787z"/></clipPath><clipPath id="b-unicorn404"><path data-name="Path 40702" d="m36.969-108.4-1.006.989-10 13.576L17.5-79.2l.717 17.924 4.3 4.3.4.6.119-.08.917.917L26.1-44.79l12.186 10.037h7.886l-7.886-12.188 1.028-2.682.81-2.086a126.87 126.87 0 0 1 5.913-13.641l.136-.231a47.669 47.669 0 0 0 3.759-8.455l.543-1.582 3.585-1.434.743-.318-.594-1.19Zm94.166-14.379-93.063 13.297-.047.046L55.493-79.2l.8 1.2 7.807-3.354 51.62-21.508Z" transform="translate(-17.495 122.777)" fill="#d0d0d0" clip-rule="evenodd"/></clipPath><clipPath id="c-unicorn404"><path data-name="Path 40704" d="m157.961-57.832.4.6-.379 1.115-27.067 18.039-.515-.515-.4-.6Z" transform="translate(-130 57.832)" fill="#d0d0d0" clip-rule="evenodd"/></clipPath><clipPath id="d-unicorn404"><path data-name="Path 40706" d="m141.685-198.754-.007.007-3.4 29.928-5.019 24.376v22.225l1.873 5.62 9.737-13.215.075-.086 1.271-1.906 4.333-10.832 7.619-10.792Z" transform="translate(-133.258 198.754)" fill="#d0d0d0" clip-rule="evenodd"/></clipPath><clipPath id="e-unicorn404"><path data-name="Path 40708" d="M81.4-218.223 0-138.193l92.31-13.187.818-.724 10.754-27.961v-12.905l-9.32-11.471h-3.585l-3.585-6.453h-5.018Z" transform="translate(0 218.223)" fill="#d0d0d0" clip-rule="evenodd"/></clipPath><clipPath id="f-unicorn404"><path data-name="Path 40710" d="M115.381-217.115 47.663-199.84l4.173 22.258-4.37 18.206-8.633 12.23-3.489 8.723Z" transform="translate(-35.344 217.115)" fill="#d0d0d0" clip-rule="evenodd"/></clipPath><clipPath id="g-unicorn404"><path data-name="Path 40712" d="m134.668-323.242-4.2 36.391-1.157.951 3.356 19.466-3.652 22.641-11.987 8.462 16.43 45.181 4.2-17.509-4.3-22.91 10.743-71.616-8.443-20.4Z" transform="translate(-117.029 323.242)" fill="#d0d0d0" clip-rule="evenodd"/></clipPath><clipPath id="h-unicorn404"><path data-name="Path 40714" d="M199.919-225.179 176.6-206l-7.825 29.163 2.172.543 10.754-2.868 12.905.717 6.453-15.773 16.65-13.882Z" transform="translate(-168.772 225.179)" fill="#d0d0d0" clip-rule="evenodd"/></clipPath><clipPath id="i-unicorn404"><path data-name="Path 40716" d="m238.046-158.456-.039.141.687.184Z" transform="translate(-238.007 158.456)" fill="#d0d0d0" clip-rule="evenodd"/></clipPath><clipPath id="j-unicorn404"><path data-name="Path 40718" d="m228.3-198 2.683 20.791 15.119 7.559 7.609-28.35Z" transform="translate(-228.303 198)" fill="#d0d0d0" clip-rule="evenodd"/></clipPath><clipPath id="k-unicorn404"><path data-name="Path 40720" d="m58.439-308.641-26.822 81.174 69.443-17.716-.275-2.058L88.6-270.183 74.976-296.71l-7.886-8.6Z" transform="translate(-31.617 308.641)" fill="#d0d0d0" clip-rule="evenodd"/></clipPath><clipPath id="l-unicorn404"><path data-name="Path 40722" d="M263.742-200v1.434h.185Z" transform="translate(-263.742 200)" fill="#d0d0d0" clip-rule="evenodd"/></clipPath><clipPath id="m-unicorn404"><path data-name="Path 40724" d="m107.826-347-14.876 5.216 17.6 11.512 8.764 21.18-10.133 67.557 25.921-78.446-5.055-9.1-10.747-3.58Z" transform="translate(-92.95 347)" fill="#d0d0d0" clip-rule="evenodd"/></clipPath><clipPath id="n-unicorn404"><path data-name="Path 40726" d="m240.005-239.683 2.221 15.546-13.626 12.905h25.377Z" transform="translate(-228.605 239.683)" fill="#d0d0d0" clip-rule="evenodd"/></clipPath><clipPath id="o-unicorn404"><path data-name="Path 40728" d="m140.264-230.358-.428.352.4.053Zm4.994-74.195-4.994 74.195 61.819-50.83-.039-.23Zm11.2 23.336q3.662-2.673 9.522-1.605a.716.716 0 0 1 .138.04.717.717 0 0 1 .4.932l-3.982 9.956-11.194-.658a.716.716 0 0 1-.238-.056.717.717 0 0 1-.38-.94 17.8 17.8 0 0 1 5.733-7.668Z" transform="translate(-139.836 304.552)" fill="#d0d0d0" clip-rule="evenodd"/></clipPath><clipPath id="p-unicorn404"><path data-name="Path 40730" d="m172.715-269.7-37.7 31 17.726 17.018 6.929 1.107.4-.2 12.309-8.687 3.518-21.811Z" transform="translate(-135.013 269.695)" fill="#d0d0d0" clip-rule="evenodd"/></clipPath><clipPath id="q-unicorn404"><path data-name="Path 40732" d="m244.638-303.006-16.976 20.241-.315.488-6.147 12.967 3.4 6.922 15.178 30.888Z" transform="translate(-221.205 303.006)" fill="#d0d0d0" clip-rule="evenodd"/></clipPath><clipPath id="r-unicorn404"><path data-name="Path 40734" d="m279.769-286.54-17.414 2.467-.538.2-.18.717-14.337 12.908 2.868 18.641 2.151 6.453v-7.886l4.3-7.169L270.24-272.4l1.434 1.434-2.868 12.188-.717 4.3-2.151 1.434 6.453-2.868 1.994-16.617-.639-1.3ZM270.957-319l-4.3 7.169-1.434 15.056-2.868 10.754-.179.717h.179l17.71-2.733-9.143-29.538.478-1.425Z" transform="translate(-247.298 319)" fill="#d0d0d0" clip-rule="evenodd"/></clipPath><clipPath id="s-unicorn404"><path data-name="Path 40736" d="M132.068-339v5.512l28.627 41.51.089-.073L165-328.58 149.061-339Z" transform="translate(-132.068 339)" fill="#d0d0d0" clip-rule="evenodd"/></clipPath><clipPath id="t-unicorn404"><path data-name="Path 40738" d="m143.158-387-1.434 2.868 5.019 17.924-.021-.174 2.84 11.356 9.254 14.237-1.2.781-3.951-6.079-6.705 16.765 55.189 22.484-27.449-39.79v-9.963l-6.959-6.96-1.644-1.224Z" transform="translate(-141.725 387)" fill="#d0d0d0" clip-rule="evenodd"/></clipPath><clipPath id="u-unicorn404"><path data-name="Path 40740" d="m218.811-338.426 9.58 6.277 4.962 10.739-10.691 4.934-10.29-9.6-.327.983-.2.6-.481 1.442 8.863 28.635 17.722-21.131 6.814-17.035Z" transform="translate(-211.364 338.426)" fill="#d0d0d0" clip-rule="evenodd"/></clipPath><clipPath id="v-unicorn404"><path data-name="Path 40742" d="m230.721-374.3 40.769 35.495 11.219 10.471 7.949-3.669-.665-.665Z" transform="translate(-230.721 374.302)" fill="#d0d0d0" clip-rule="evenodd"/></clipPath><clipPath id="w-unicorn404"><path data-name="Path 40744" d="m231.671-375 58.309 40.369-2.961-6.908-20.611-13.5Z" transform="translate(-231.671 375)" fill="#d0d0d0" clip-rule="evenodd"/></clipPath><clipPath id="x-unicorn404"><path data-name="Path 40746" d="m210.83-361 1.073 8.7 9.945 5.683 27.819 6.259-4.373-6.727-2.2-6.743-17.924 5.736L212.98-361Z" transform="translate(-210.83 361)" fill="#d0d0d0" clip-rule="evenodd"/></clipPath><clipPath id="y-unicorn404"><path data-name="Path 40748" d="m134.045-355.068 6.92 6.921v3.165h17.087L172.478-350h-9.288L151-351.435Z" transform="translate(-134.045 355.068)" fill="#d0d0d0" clip-rule="evenodd"/></clipPath></defs><g data-name="Group 19530" transform="translate(-703 -326)"><ellipse data-name="Ellipse 320" cx="257.5" cy="24" rx="257.5" ry="24" transform="translate(703 537)" fill="rgba(0,0,0,0.2)"/><ellipse data-name="Ellipse 324" cx="214" cy="15" rx="214" ry="15" transform="translate(747 546)" fill="rgba(0,0,0,0.3)"/><ellipse data-name="Ellipse 323" cx="151.5" cy="15" rx="151.5" ry="15" transform="translate(809 546)" fill="rgba(0,0,0,0.4)"/><ellipse data-name="Ellipse 321" cx="111.5" cy="13" rx="111.5" ry="13" transform="translate(849 548)" fill="rgba(0,0,0,0.5)"/><g data-name="Mask Group 54" transform="translate(12 -61)" clip-path="url(#a-unicorn404)"><g data-name="Group 19502"><g data-name="Group 19478" transform="translate(909.056 590.205)" clip-path="url(#b-unicorn404)"><path data-name="Path 40701" d="M117.22-3.585H-3.58v95.194h120.8Z" fill="#d0d0d0"/></g><g data-name="Group 19479" transform="translate(913.677 636.767)" clip-path="url(#c-unicorn404)"><path data-name="Path 40703" d="M31.943-3.585H-3.585v26.924h35.528Z" fill="#d0d0d0"/></g><g data-name="Group 19480" transform="translate(914.791 535.733)" clip-path="url(#d-unicorn404)"><path data-name="Path 40705" d="M28.493-3.585H-3.585v89.326h32.078Z" fill="#d0d0d0"/></g><g data-name="Group 19481" transform="translate(931.356 521.775)" clip-path="url(#e-unicorn404)"><path data-name="Path 40707" d="M107.467-3.585H-3.585v87.2h111.052Z" fill="#d0d0d0"/></g><g data-name="Group 19482" transform="translate(929.861 522.569)" clip-path="url(#f-unicorn404)"><path data-name="Path 40709" d="M83.622-3.585H-3.585v85.862h87.207Z" fill="#d0d0d0"/></g><g data-name="Group 19483" transform="translate(924.256 446.482)" clip-path="url(#g-unicorn404)"><path data-name="Path 40711" d="M30.663-3.584H-3.585v140.262h34.248Z" fill="#d0d0d0"/></g><g data-name="Group 19484" transform="translate(865.3 516.788)" clip-path="url(#h-unicorn404)"><path data-name="Path 40713" d="M52.522-3.584H-3.585v56.05h56.107Z" fill="#d0d0d0"/></g><g data-name="Group 19485" transform="translate(863.913 564.625)" clip-path="url(#i-unicorn404)"><path data-name="Path 40715" d="M4.272-3.585h-7.857v7.494h7.857Z" fill="#d0d0d0"/></g><g data-name="Group 19486" transform="translate(846.149 536.274)" clip-path="url(#j-unicorn404)"><path data-name="Path 40717" d="M28.992-3.585h-32.58v35.52h32.58Z" fill="#d0d0d0"/></g><g data-name="Group 19487" transform="translate(943.127 456.95)" clip-path="url(#k-unicorn404)"><path data-name="Path 40719" d="M73.028-3.585H-3.585v88.341h76.613Z" fill="#d0d0d0"/></g><g data-name="Group 19488" transform="translate(845.964 534.84)" clip-path="url(#l-unicorn404)"><path data-name="Path 40721" d="M3.773-3.585h-7.354v8.6h7.354Z" fill="#d0d0d0"/></g><g data-name="Group 19489" transform="translate(926.442 429.449)" clip-path="url(#m-unicorn404)"><path data-name="Path 40723" d="M45.741-3.585H-3.584v112.634h49.326Z" fill="#d0d0d0"/></g><g data-name="Group 19490" transform="translate(845.964 506.389)" clip-path="url(#n-unicorn404)"><path data-name="Path 40725" d="M28.962-3.585H-3.589v35.62h32.546Z" fill="#d0d0d0"/></g><g data-name="Group 19491" transform="translate(872.736 459.882)" clip-path="url(#o-unicorn404)"><path data-name="Path 40727" d="M65.833-3.584H-3.584v81.769h69.417Z" fill="#d0d0d0"/></g><g data-name="Group 19492" transform="translate(897.562 484.872)" clip-path="url(#p-unicorn404)"><path data-name="Path 40729" d="M44.464-3.589H-3.585v56.3h48.049Z" fill="#d0d0d0"/></g><g data-name="Group 19493" transform="translate(853.213 460.99)" clip-path="url(#q-unicorn404)"><path data-name="Path 40731" d="M27.017-3.585H-3.59V75.09h30.6Z" fill="#d0d0d0"/></g><g data-name="Group 19494" transform="translate(825.173 449.523)" clip-path="url(#r-unicorn404)"><path data-name="Path 40733" d="M36.35-3.585H-3.583V77.43h39.935Z" fill="#d0d0d0"/></g><g data-name="Group 19495" transform="translate(907.622 435.184)" clip-path="url(#s-unicorn404)"><path data-name="Path 40735" d="M36.516-3.585h-40.1v54.191h40.1Z" fill="#d0d0d0"/></g><g data-name="Group 19496" transform="translate(873.208 400.771)" clip-path="url(#t-unicorn404)"><path data-name="Path 40737" d="M64.006-3.585h-67.59v87.331h67.59Z" fill="#d0d0d0"/></g><g data-name="Group 19497" transform="translate(850.303 435.596)" clip-path="url(#u-unicorn404)"><path data-name="Path 40739" d="M36.983-3.585H-3.585v51.174h40.568Z" fill="#d0d0d0"/></g><g data-name="Group 19498" transform="translate(809.887 409.875)" clip-path="url(#v-unicorn404)"><path data-name="Path 40741" d="M63.521-3.583H-3.585v53.135h67.106Z" fill="#d0d0d0"/></g><g data-name="Group 19499" transform="translate(810.834 409.374)" clip-path="url(#w-unicorn404)"><path data-name="Path 40743" d="M61.894-3.585H-3.584v47.538h65.478Z" fill="#d0d0d0"/></g><g data-name="Group 19500" transform="translate(845.247 419.412)" clip-path="url(#x-unicorn404)"><path data-name="Path 40745" d="M42.422-3.585H-3.584v27.809h46.007Z" fill="#d0d0d0"/></g><g data-name="Group 19501" transform="translate(900.702 423.665)" clip-path="url(#y-unicorn404)"><path data-name="Path 40747" d="M42.018-3.585h-45.6V13.67h45.6Z" fill="#d0d0d0"/></g></g></g></g></svg>